<svg width="35" height="39" viewBox="0 0 35 39" fill="none" xmlns="http://www.w3.org/2000/svg">
<path d="M10.3276 6.45599V9.03713H32.1304V14.1466L29.5843 23.2334H9.60555L6.73677 0H0V2.58114H4.73837L7.60716 25.8145H31.2675L34.4254 14.5436V6.45599H10.3276Z" fill="white"/>
<path d="M11.5461 28.4203C10.3292 28.4218 9.16248 28.9662 8.30198 29.934C7.44148 30.9018 6.95744 32.2139 6.95605 33.5825C6.95605 34.9517 7.43965 36.2647 8.30045 37.2328C9.16125 38.2009 10.3288 38.7448 11.5461 38.7448C12.7635 38.7448 13.931 38.2009 14.7918 37.2328C15.6526 36.2647 16.1362 34.9517 16.1362 33.5825C16.1348 32.2139 15.6508 30.9017 14.7903 29.934C13.9298 28.9662 12.7631 28.4218 11.5461 28.4203ZM11.5461 36.1637C11.0922 36.1637 10.6485 36.0123 10.2711 35.7287C9.89365 35.4451 9.59949 35.0419 9.42578 34.5703C9.25208 34.0987 9.20663 33.5797 9.29518 33.079C9.38374 32.5783 9.60232 32.1184 9.92328 31.7574C10.2442 31.3964 10.6532 31.1506 11.0984 31.051C11.5436 30.9514 12.005 31.0025 12.4244 31.1979C12.8437 31.3932 13.2022 31.7241 13.4544 32.1485C13.7065 32.573 13.8411 33.072 13.8411 33.5825C13.8404 34.2669 13.5984 34.9229 13.1681 35.4068C12.7379 35.8907 12.1546 36.1629 11.5461 36.1637Z" fill="white"/>
<path d="M27.6106 28.4203C26.3936 28.4218 25.2269 28.9662 24.3664 29.934C23.5059 30.9018 23.0219 32.2139 23.0205 33.5825C23.0205 34.9517 23.5041 36.2647 24.3649 37.2328C25.2257 38.2009 26.3932 38.7448 27.6106 38.7448C28.8279 38.7448 29.9954 38.2009 30.8562 37.2328C31.717 36.2647 32.2006 34.9517 32.2006 33.5825C32.1993 32.2139 31.7152 30.9017 30.8547 29.934C29.9942 28.9662 28.8275 28.4218 27.6106 28.4203ZM27.6106 36.1637C27.1567 36.1637 26.7129 36.0123 26.3355 35.7287C25.9581 35.4451 25.6639 35.0419 25.4902 34.5703C25.3165 34.0987 25.2711 33.5797 25.3596 33.079C25.4482 32.5783 25.6668 32.1184 25.9877 31.7574C26.3087 31.3964 26.7176 31.1506 27.1628 31.051C27.608 30.9514 28.0695 31.0025 28.4888 31.1979C28.9082 31.3932 29.2666 31.7241 29.5188 32.1485C29.771 32.573 29.9056 33.072 29.9056 33.5825C29.9049 34.2669 29.6628 34.9229 29.2326 35.4068C28.8024 35.8907 28.219 36.1629 27.6106 36.1637Z" fill="white"/>
</svg>
