<svg width="77" height="69" viewBox="0 0 77 69" fill="none" xmlns="http://www.w3.org/2000/svg">
<path d="M74.1871 6.67975L50.3067 0L26.3565 6.74648L4.08405 0.428312C3.60679 0.292903 3.10463 0.270015 2.61703 0.361446C2.12944 0.452877 1.66968 0.656136 1.2739 0.955252C0.878125 1.25437 0.557102 1.64119 0.336063 2.08532C0.115023 2.52945 -1.08039e-05 3.01879 7.61054e-10 3.51489V58.1528C0.00242655 58.9901 0.276667 59.8039 0.781465 60.4718C1.28626 61.1398 1.99432 61.6258 2.79911 61.8567L26.351 68.538L50.3116 61.7887L72.9277 68.1148C73.4045 68.2482 73.9057 68.2693 74.3921 68.1767C74.8785 68.084 75.3368 67.88 75.7312 67.5807C76.1256 67.2814 76.4454 66.8948 76.6655 66.4513C76.8856 66.0078 77.0001 65.5194 77 65.0243V10.3875C76.9979 9.54768 76.7222 8.73147 76.2146 8.06244C75.707 7.3934 74.9952 6.908 74.1871 6.67975ZM23.5812 62.4156L5.13333 57.1821V6.06182L23.5812 11.2953V62.4156ZM47.7424 57.1784L28.7146 62.5383V11.4153L47.7424 6.05541V57.1784ZM71.8667 62.4868L52.8757 57.1754V6.04883L71.8667 11.3604V62.4868Z" fill="#EBAB56"/>
</svg>
