<svg width="77" height="77" viewBox="0 0 77 77" fill="none" xmlns="http://www.w3.org/2000/svg">
<path d="M74.7984 8.0013L74.6712 7.92183L58.5915 0L41.2362 23.1404L49.2209 33.7875C48.982 37.8027 47.2792 41.5911 44.435 44.4353C41.5907 47.2795 37.8024 48.9822 33.7871 49.2211L23.1402 41.2364L0 58.5914L7.8559 74.5366L7.92201 74.6712L8.00167 74.7982C8.4209 75.4737 9.00605 76.0307 9.7014 76.4161C10.3968 76.8015 11.1792 77.0025 11.9742 77H16.1233C24.1178 77 32.0339 75.4253 39.4198 72.366C46.8057 69.3066 53.5168 64.8225 59.1697 59.1695C64.8226 53.5166 69.3067 46.8056 72.3661 39.4197C75.4254 32.0338 77 24.1176 77 16.1231V11.9738C77.0025 11.1788 76.8015 10.3964 76.4162 9.70105C76.0308 9.00569 75.4739 8.42054 74.7984 8.0013ZM71.0578 16.1231C71.0578 46.4142 46.4142 71.0578 16.1233 71.0578H12.766L7.50977 60.3874L23.1414 48.6637L31.8442 55.1906H32.8345C38.762 55.1839 44.4449 52.8263 48.6362 48.6349C52.8276 44.4435 55.1852 38.7607 55.1919 32.8332V31.8429L48.665 23.1403L60.3874 7.50959L71.0578 12.7667V16.1231Z" fill="#EBAB56"/>
</svg>
