<svg width="28" height="17" viewBox="0 0 28 17" fill="none" xmlns="http://www.w3.org/2000/svg">
<path d="M0 0.929016H27.1761V16.1891H0V0.929016Z" fill="white"/>
<path d="M0 0.929016H27.1761V2.10289H0V0.929016ZM0 3.27676H27.1761V4.45063H0V3.27676ZM0 5.62441H27.1761V6.79828H0V5.62441ZM0 7.97215H27.1761V9.14602H0V7.97215ZM0 10.3198H27.1761V11.4937H0V10.3198ZM0 12.6675H27.1761V13.8414H0V12.6675ZM0 15.0152H27.1761V16.1891H0V15.0152Z" fill="#B22234"/>
<path d="M0 0.929016H10.8704V9.14592H0V0.929016Z" fill="#3C3B6E"/>
<path d="M0.510742 1.59622L0.76973 1.79695L0.670809 2.12178L0.929707 1.92105L1.18869 2.12178L1.08977 1.79695L1.34867 1.59622H1.02863L0.929707 1.27148L0.830786 1.59622H0.510742ZM2.31297 1.59622L2.57187 1.79695L2.47295 2.12178L2.73193 1.92105L2.99092 2.12178L2.892 1.79695L3.1509 1.59622H2.83086L2.73193 1.27148L2.63301 1.59622H2.31297ZM4.1152 1.59622L4.37409 1.79695L4.27517 2.12178L4.53416 1.92105L4.79306 2.12178L4.69414 1.79695L4.95313 1.59622H4.63308L4.53416 1.27148L4.43524 1.59622H4.1152ZM5.91742 1.59622L6.17632 1.79695L6.0774 2.12178L6.33639 1.92105L6.59529 2.12178L6.49637 1.79695L6.75535 1.59622H6.43522L6.33639 1.27148L6.23747 1.59622H5.91742ZM7.71956 1.59622L7.97855 1.79695L7.87963 2.12178L8.13853 1.92105L8.39751 2.12178L8.29859 1.79695L8.55749 1.59622H8.23745L8.13853 1.27148L8.03961 1.59622H7.71956ZM9.52179 1.59622L9.78069 1.79695L9.68177 2.12178L9.94075 1.92105L10.1997 2.12178L10.1007 1.79695L10.3597 1.59622H10.0397L9.94075 1.27148L9.84183 1.59622H9.52179ZM1.41181 2.42032L1.6708 2.62106L1.57188 2.94579L1.83087 2.74506L2.08976 2.94579L1.99084 2.62106L2.24983 2.42032H1.9297L1.83087 2.09549L1.73194 2.42032H1.41181ZM3.21404 2.42032L3.47303 2.62106L3.37411 2.94579L3.633 2.74506L3.89199 2.94579L3.79307 2.62106L4.05197 2.42032H3.73192L3.633 2.09549L3.53408 2.42032H3.21404ZM5.01627 2.42032L5.27525 2.62106L5.17633 2.94579L5.43523 2.74506L5.69422 2.94579L5.5953 2.62106L5.85419 2.42032H5.53415L5.43523 2.09549L5.33631 2.42032H5.01627ZM6.81849 2.42032L7.07739 2.62106L6.97847 2.94579L7.23746 2.74506L7.49636 2.94579L7.39743 2.62106L7.65642 2.42032H7.33638L7.23746 2.09549L7.13854 2.42032H6.81849ZM8.62063 2.42032L8.87962 2.62106L8.7807 2.94579L9.03959 2.74506L9.29858 2.94579L9.19966 2.62106L9.45856 2.42032H9.13852L9.03959 2.09549L8.94076 2.42032H8.62063ZM0.510742 3.24433L0.76973 3.44507L0.670809 3.7699L0.929707 3.56916L1.18869 3.7699L1.08977 3.44507L1.34867 3.24433H1.02863L0.929707 2.9196L0.830786 3.24433H0.510742ZM2.31297 3.24433L2.57187 3.44507L2.47295 3.7699L2.73193 3.56916L2.99092 3.7699L2.892 3.44507L3.1509 3.24433H2.83086L2.73193 2.9196L2.63301 3.24433H2.31297ZM4.1152 3.24433L4.37409 3.44507L4.27517 3.7699L4.53416 3.56916L4.79306 3.7699L4.69414 3.44507L4.95313 3.24433H4.63308L4.53416 2.9196L4.43524 3.24433H4.1152ZM5.91742 3.24433L6.17632 3.44507L6.0774 3.7699L6.33639 3.56916L6.59529 3.7699L6.49637 3.44507L6.75535 3.24433H6.43522L6.33639 2.9196L6.23747 3.24433H5.91742ZM7.71956 3.24433L7.97855 3.44507L7.87963 3.7699L8.13853 3.56916L8.39751 3.7699L8.29859 3.44507L8.55749 3.24433H8.23745L8.13853 2.9196L8.03961 3.24433H7.71956ZM9.52179 3.24433L9.78069 3.44507L9.68177 3.7699L9.94075 3.56916L10.1997 3.7699L10.1007 3.44507L10.3597 3.24433H10.0397L9.94075 2.9196L9.84183 3.24433H9.52179ZM1.4341 4.07115L1.69299 4.27188L1.59416 4.59662L1.85306 4.39588L2.11205 4.59662L2.01313 4.27179L2.27202 4.07115H1.95198L1.85306 3.74632L1.75414 4.07115H1.4341ZM3.23632 4.07115L3.49522 4.27188L3.3963 4.59662L3.65529 4.39588L3.91418 4.59662L3.81526 4.27179L4.07425 4.07115H3.75421L3.65529 3.74632L3.55637 4.07115H3.23632ZM5.03855 4.07115L5.29745 4.27188L5.19853 4.59662L5.45751 4.39588L5.71641 4.59662L5.61749 4.27179L5.87648 4.07115H5.55634L5.45751 3.74632L5.35859 4.07115H5.03855ZM6.84069 4.07115L7.09967 4.27188L7.00075 4.59662L7.25965 4.39588L7.51864 4.59662L7.41972 4.27179L7.67862 4.07115H7.35857L7.25965 3.74632L7.16073 4.07115H6.84069ZM8.64291 4.07115L8.90181 4.27188L8.80289 4.59662L9.06188 4.39588L9.32078 4.59662L9.22186 4.27179L9.48084 4.07115H9.1608L9.06188 3.74632L8.96296 4.07115H8.64291ZM0.538099 4.8883L0.797088 5.08893L0.698167 5.41376L0.957064 5.21303L1.21605 5.41376L1.11713 5.08893L1.37603 4.8883H1.05599L0.957064 4.56347L0.858143 4.8883H0.538099ZM2.34033 4.8883L2.59922 5.08893L2.5003 5.41376L2.75929 5.21303L3.01819 5.41376L2.91936 5.08893L3.17826 4.8883H2.85821L2.75929 4.56347L2.66037 4.8883H2.34033ZM4.14255 4.8883L4.40145 5.08893L4.30253 5.41376L4.56152 5.21303L4.82042 5.41376L4.7215 5.08893L4.98048 4.8883H4.66044L4.56152 4.56347L4.4626 4.8883H4.14255ZM5.94469 4.8883L6.20368 5.08893L6.10476 5.41376L6.36366 5.21303L6.62264 5.41376L6.52372 5.08893L6.78271 4.8883H6.46258L6.36366 4.56347L6.26483 4.8883H5.94469ZM7.74692 4.8883L8.00582 5.08893L7.90699 5.41376L8.16588 5.21303L8.42487 5.41376L8.32595 5.08893L8.58485 4.8883H8.2648L8.16588 4.56347L8.06696 4.8883H7.74692ZM9.54915 4.8883L9.80804 5.08893L9.70912 5.41376L9.96811 5.21303L10.227 5.41376L10.1281 5.08893L10.3871 4.8883H10.067L9.96811 4.56347L9.86919 4.8883H9.54915ZM0.555039 6.51022L0.813937 6.71096L0.715016 7.03579L0.974004 6.83505L1.2329 7.03579L1.13398 6.71096L1.39297 6.51022H1.07292L0.974004 6.18549L0.875083 6.51022H0.555039ZM2.35718 6.51022L2.61616 6.71096L2.51724 7.03579L2.77614 6.83505L3.03513 7.03579L2.93621 6.71096L3.19511 6.51022H2.87506L2.77614 6.18549L2.67722 6.51022H2.35718ZM4.1594 6.51022L4.4183 6.71096L4.31947 7.03579L4.57837 6.83505L4.83736 7.03579L4.73844 6.71096L4.99733 6.51022H4.67729L4.57837 6.18549L4.47945 6.51022H4.1594ZM5.96163 6.51022L6.22053 6.71096L6.12161 7.03579L6.3806 6.83505L6.63949 7.03579L6.54066 6.71096L6.79956 6.51022H6.47952L6.3806 6.18549L6.28167 6.51022H5.96163ZM7.76377 6.51022L8.02276 6.71096L7.92383 7.03579L8.18273 6.83505L8.44172 7.03579L8.3428 6.71096L8.60179 6.51022H8.28165L8.18273 6.18549L8.0839 6.51022H7.76377ZM9.566 6.51022L9.82489 6.71096L9.72606 7.03579L9.98496 6.83505L10.2439 7.03579L10.145 6.71096L10.4039 6.51022H10.0839L9.98496 6.18549L9.88604 6.51022H9.566ZM0.533027 8.15128L0.791924 8.35202L0.693003 8.67685L0.951991 8.47611L1.21089 8.67685L1.11197 8.35202L1.37096 8.15128H1.05082L0.951991 7.82655L0.85307 8.15128H0.533027ZM2.33516 8.15128L2.59415 8.35202L2.49523 8.67685L2.75413 8.47611L3.01312 8.67685L2.9142 8.35202L3.17309 8.15128H2.85305L2.75413 7.82655L2.65521 8.15128H2.33516ZM4.13739 8.15128L4.39629 8.35202L4.29746 8.67685L4.55636 8.47611L4.81534 8.67685L4.71642 8.35202L4.97532 8.15128H4.65528L4.55636 7.82655L4.45743 8.15128H4.13739ZM5.93962 8.15128L6.19852 8.35202L6.09959 8.67685L6.35858 8.47611L6.61748 8.67685L6.51865 8.35202L6.77755 8.15128H6.4575L6.35858 7.82655L6.25966 8.15128H5.93962ZM7.74176 8.15128L8.00074 8.35202L7.90182 8.67685L8.16072 8.47611L8.41971 8.67685L8.32079 8.35202L8.57977 8.15128H8.25964L8.16072 7.82655L8.06189 8.15128H7.74176ZM9.54398 8.15128L9.80288 8.35202L9.70405 8.67685L9.96295 8.47611L10.2219 8.67685L10.123 8.35202L10.3819 8.15128H10.0619L9.96295 7.82655L9.86403 8.15128H9.54398ZM1.43944 5.69114L1.69834 5.89188L1.59951 6.21661L1.8584 6.01587L2.11739 6.21661L2.01847 5.89188L2.27737 5.69114H1.95733L1.8584 5.36631L1.75948 5.69114H1.43944ZM3.24167 5.69114L3.50056 5.89188L3.40164 6.21661L3.66063 6.01587L3.91953 6.21661L3.8207 5.89188L4.0796 5.69114H3.75955L3.66063 5.36631L3.56171 5.69114H3.24167ZM5.04389 5.69114L5.30279 5.89188L5.20387 6.21661L5.46286 6.01587L5.72176 6.21661L5.62284 5.89188L5.88182 5.69114H5.56178L5.46286 5.36631L5.36394 5.69114H5.04389ZM6.84603 5.69114L7.10502 5.89188L7.0061 6.21661L7.265 6.01587L7.52398 6.21661L7.42506 5.89188L7.68396 5.69114H7.36392L7.265 5.36631L7.16608 5.69114H6.84603ZM8.64826 5.69114L8.90716 5.89188L8.80824 6.21661L9.06722 6.01587L9.32612 6.21661L9.22729 5.89188L9.48619 5.69114H9.16614L9.06722 5.36631L8.9683 5.69114H8.64826ZM1.4341 7.32959L1.69308 7.53033L1.59416 7.85516L1.85306 7.65442L2.11205 7.85516L2.01313 7.53033L2.27202 7.32959H1.95198L1.85306 7.00486L1.75414 7.32959H1.4341ZM3.23632 7.32959L3.49522 7.53033L3.3963 7.85516L3.65529 7.65442L3.91428 7.85516L3.81535 7.53033L4.07425 7.32959H3.75421L3.65529 7.00486L3.55637 7.32959H3.23632ZM5.03855 7.32959L5.29745 7.53033L5.19853 7.85516L5.45751 7.65442L5.71641 7.85516L5.61749 7.53033L5.87648 7.32959H5.55644L5.45751 7.00486L5.35859 7.32959H5.03855ZM6.84069 7.32959L7.09967 7.53033L7.00075 7.85516L7.25965 7.65442L7.51864 7.85516L7.41972 7.53033L7.67862 7.32959H7.35857L7.25965 7.00486L7.16073 7.32959H6.84069ZM8.64291 7.32959L8.90181 7.53033L8.80289 7.85516L9.06188 7.65442L9.32078 7.85516L9.22195 7.53033L9.48084 7.32959H9.1608L9.06188 7.00486L8.96296 7.32959H8.64291Z" fill="white"/>
</svg>
